HIERARCHY
ROOT hip
{
  OFFSET 0 90.174 2.4664
  CHANNELS 6 Xposition Yposition Zposition Zrotation Xrotation Yrotation
  JOINT abdomen
  {
    OFFSET 0 -1.186 -1.5018
    CHANNELS 6 Xposition Yposition Zposition Zrotation Xrotation Yrotation
    JOINT abdomen2
    {
      OFFSET 0 9.964 0.2134
      CHANNELS 6 Xposition Yposition Zposition Zrotation Xrotation Yrotation
      JOINT chest
      {
        OFFSET 0 13.134 -3.2573
        CHANNELS 6 Xposition Yposition Zposition Zrotation Xrotation Yrotation
        JOINT neck
        {
          OFFSET 0 20.686 -1.6905
          CHANNELS 6 Xposition Yposition Zposition Zrotation Xrotation Yrotation
          JOINT head
          {
            OFFSET 0 7.238 -0.1237
            CHANNELS 6 Xposition Yposition Zposition Zrotation Xrotation Yrotation
            End Site
            {
              OFFSET 0 0 0
            }
          }
        }
        JOINT lCollar
        {
          OFFSET 1.7069 20.075 5.0056
          CHANNELS 6 Xposition Yposition Zposition Zrotation Xrotation Yrotation
          JOINT lShldr
          {
            OFFSET 13.6458 -0.047 -4.849
            CHANNELS 6 Xposition Yposition Zposition Zrotation Xrotation Yrotation
            JOINT lForeArm
            {
              OFFSET 28.3255 -0.9759 2.2888
              CHANNELS 6 Xposition Yposition Zposition Zrotation Xrotation Yrotation
              JOINT lHand
              {
                OFFSET 22.1583 -0.53 10.8316
                CHANNELS 6 Xposition Yposition Zposition Zrotation Xrotation Yrotation
                JOINT lThumb1
                {
                  OFFSET 0.786 0.112 2.5817
                  CHANNELS 6 Xposition Yposition Zposition Zrotation Xrotation Yrotation
                  JOINT lThumb2
                  {
                    OFFSET 0.3601 -0.878 4.2331
                    CHANNELS 6 Xposition Yposition Zposition Zrotation Xrotation Yrotation
                    JOINT lThumb2_End
                    {
                      OFFSET 1.8127 -1.216 2.2227
                      CHANNELS 6 Xposition Yposition Zposition Zrotation Xrotation Yrotation
                      End Site
                      {
                        OFFSET 0.0181 -0.0122 0.0222
                      }
                    }
                  }
                }
                JOINT lCarpal1
                {
                  OFFSET 0.9571 1.114 1.7695
                  CHANNELS 6 Xposition Yposition Zposition Zrotation Xrotation Yrotation
                  JOINT lIndex1
                  {
                    OFFSET 4.1246 0.487 4.1451
                    CHANNELS 6 Xposition Yposition Zposition Zrotation Xrotation Yrotation
                    JOINT lIndex2
                    {
                      OFFSET 3.4052 -1.454 2.7682
                      CHANNELS 6 Xposition Yposition Zposition Zrotation Xrotation Yrotation
                      JOINT lIndex2_End
                      {
                        OFFSET 1.4531 -1.795 1.2713
                        CHANNELS 6 Xposition Yposition Zposition Zrotation Xrotation Yrotation
                        End Site
                        {
                          OFFSET 0.0145 -0.0179 0.0127
                        }
                      }
                    }
                  }
                  JOINT lMid1
                  {
                    OFFSET 5.6954 0.21 2.1184
                    CHANNELS 6 Xposition Yposition Zposition Zrotation Xrotation Yrotation
                    JOINT lMid2
                    {
                      OFFSET 3.9766 -1.54 2.3863
                      CHANNELS 6 Xposition Yposition Zposition Zrotation Xrotation Yrotation
                      JOINT lMid2_End
                      {
                        OFFSET 1.4042 -1.926 1.125
                        CHANNELS 6 Xposition Yposition Zposition Zrotation Xrotation Yrotation
                        End Site
                        {
                          OFFSET 0.014 -0.0193 0.0113
                        }
                      }
                    }
                  }
                }
                JOINT lCarpal2
                {
                  OFFSET 2.0956 0.66 -0.3894
                  CHANNELS 6 Xposition Yposition Zposition Zrotation Xrotation Yrotation
                  JOINT lRing1
                  {
                    OFFSET 5.0395 -0.09 2.4971
                    CHANNELS 6 Xposition Yposition Zposition Zrotation Xrotation Yrotation
                    JOINT lRing2
                    {
                      OFFSET 3.7921 -1.552 1.4806
                      CHANNELS 6 Xposition Yposition Zposition Zrotation Xrotation Yrotation
                      JOINT lRing2_End
                      {
                        OFFSET 1.4655 -1.808 0.9609
                        CHANNELS 6 Xposition Yposition Zposition Zrotation Xrotation Yrotation
                        End Site
                        {
                          OFFSET 0.0147 -0.0181 0.0096
                        }
                      }
                    }
                  }
                  JOINT lPinky1
                  {
                    OFFSET 4.9141 -1.269 0.3591
                    CHANNELS 6 Xposition Yposition Zposition Zrotation Xrotation Yrotation
                    JOINT lPinky2
                    {
                      OFFSET 3.1477 -1.685 0.8462
                      CHANNELS 6 Xposition Yposition Zposition Zrotation Xrotation Yrotation
                      JOINT lPinky2_End
                      {
                        OFFSET 0.8055 -1.585 0.7955
                        CHANNELS 6 Xposition Yposition Zposition Zrotation Xrotation Yrotation
                        End Site
                        {
                          OFFSET 0.0081 -0.0158 0.008
                        }
                      }
                    }
                  }
                }
              }
            }
          }
        }
        JOINT rCollar
        {
          OFFSET -1.7069 20.075 5.0056
          CHANNELS 6 Xposition Yposition Zposition Zrotation Xrotation Yrotation
          JOINT rShldr
          {
            OFFSET -13.6458 -0.047 -4.849
            CHANNELS 6 Xposition Yposition Zposition Zrotation Xrotation Yrotation
            JOINT rForeArm
            {
              OFFSET -28.3255 -0.9759 2.2888
              CHANNELS 6 Xposition Yposition Zposition Zrotation Xrotation Yrotation
              JOINT rHand
              {
                OFFSET -22.1583 -0.53 10.8316
                CHANNELS 6 Xposition Yposition Zposition Zrotation Xrotation Yrotation
                JOINT rThumb1
                {
                  OFFSET -0.786 0.112 2.5817
                  CHANNELS 6 Xposition Yposition Zposition Zrotation Xrotation Yrotation
                  JOINT rThumb2
                  {
                    OFFSET -0.3601 -0.878 4.2331
                    CHANNELS 6 Xposition Yposition Zposition Zrotation Xrotation Yrotation
                    JOINT rThumb2_End
                    {
                      OFFSET -1.8127 -1.216 2.2227
                      CHANNELS 6 Xposition Yposition Zposition Zrotation Xrotation Yrotation
                      End Site
                      {
                        OFFSET -0.0181 -0.0122 0.0222
                      }
                    }
                  }
                }
                JOINT rCarpal1
                {
                  OFFSET -0.9571 1.114 1.7695
                  CHANNELS 6 Xposition Yposition Zposition Zrotation Xrotation Yrotation
                  JOINT rIndex1
                  {
                    OFFSET -4.1246 0.487 4.1451
                    CHANNELS 6 Xposition Yposition Zposition Zrotation Xrotation Yrotation
                    JOINT rIndex2
                    {
                      OFFSET -3.4052 -1.454 2.7682
                      CHANNELS 6 Xposition Yposition Zposition Zrotation Xrotation Yrotation
                      JOINT rIndex2_End
                      {
                        OFFSET -1.4531 -1.795 1.2713
                        CHANNELS 6 Xposition Yposition Zposition Zrotation Xrotation Yrotation
                        End Site
                        {
                          OFFSET -0.0145 -0.018 0.0127
                        }
                      }
                    }
                  }
                  JOINT rMid1
                  {
                    OFFSET -5.6954 0.21 2.1184
                    CHANNELS 6 Xposition Yposition Zposition Zrotation Xrotation Yrotation
                    JOINT rMid2
                    {
                      OFFSET -3.9766 -1.54 2.3863
                      CHANNELS 6 Xposition Yposition Zposition Zrotation Xrotation Yrotation
                      JOINT rMid2_End
                      {
                        OFFSET -1.4042 -1.926 1.125
                        CHANNELS 6 Xposition Yposition Zposition Zrotation Xrotation Yrotation
                        End Site
                        {
                          OFFSET -0.014 -0.0193 0.0113
                        }
                      }
                    }
                  }
                }
                JOINT rCarpal2
                {
                  OFFSET -2.0956 0.66 -0.3894
                  CHANNELS 6 Xposition Yposition Zposition Zrotation Xrotation Yrotation
                  JOINT rRing1
                  {
                    OFFSET -5.0395 -0.09 2.4971
                    CHANNELS 6 Xposition Yposition Zposition Zrotation Xrotation Yrotation
                    JOINT rRing2
                    {
                      OFFSET -3.7921 -1.552 1.4806
                      CHANNELS 6 Xposition Yposition Zposition Zrotation Xrotation Yrotation
                      JOINT rRing2_End
                      {
                        OFFSET -1.4655 -1.808 0.9609
                        CHANNELS 6 Xposition Yposition Zposition Zrotation Xrotation Yrotation
                        End Site
                        {
                          OFFSET -0.0147 -0.0181 0.0096
                        }
                      }
                    }
                  }
                  JOINT rPinky1
                  {
                    OFFSET -4.9141 -1.269 0.3592
                    CHANNELS 6 Xposition Yposition Zposition Zrotation Xrotation Yrotation
                    JOINT rPinky2
                    {
                      OFFSET -3.1477 -1.685 0.8462
                      CHANNELS 6 Xposition Yposition Zposition Zrotation Xrotation Yrotation
                      JOINT rPinky2_End
                      {
                        OFFSET -0.8055 -1.585 0.7955
                        CHANNELS 6 Xposition Yposition Zposition Zrotation Xrotation Yrotation
                        End Site
                        {
                          OFFSET -0.0081 -0.0158 0.008
                        }
                      }
                    }
                  }
                }
              }
            }
          }
        }
      }
    }
  }
  JOINT lThigh
  {
    OFFSET 8.367 -8.2066 0.5982
    CHANNELS 6 Xposition Yposition Zposition Zrotation Xrotation Yrotation
    JOINT lShin
    {
      OFFSET 2.1923 -43.463 -0.4932
      CHANNELS 6 Xposition Yposition Zposition Zrotation Xrotation Yrotation
      JOINT lFoot
      {
        OFFSET 0.7333 -45.8593 -2.6451
        CHANNELS 6 Xposition Yposition Zposition Zrotation Xrotation Yrotation
        End Site
        {
          OFFSET 2.6618 -4.2699 12.3931
        }
      }
    }
  }
  JOINT rThigh
  {
    OFFSET -8.367 -8.2066 0.5982
    CHANNELS 6 Xposition Yposition Zposition Zrotation Xrotation Yrotation
    JOINT rShin
    {
      OFFSET -2.1923 -43.463 -0.4931
      CHANNELS 6 Xposition Yposition Zposition Zrotation Xrotation Yrotation
      JOINT rFoot
      {
        OFFSET -0.7333 -45.8593 -2.6451
        CHANNELS 6 Xposition Yposition Zposition Zrotation Xrotation Yrotation
        End Site
        {
          OFFSET -2.6618 -4.2699 12.3931
        }
      }
    }
  }
}
MOTION
Frames:	4
Frame Time:	0.0333333
0 90.174 2.4664 0 0 -0 0 -1.186 -1.5018 0 0 -0 0 9.964 0.2134 0 0 -0 0 13.134 -3.2573 0 0 -0 0 20.686 -1.6905 0 0 -0 0 7.238 -0.1237 0 0 -0 1.7069 20.075 5.0056 0 0 -0 13.6458 -0.047 -4.849 1.66051 0.0835086 5.75766 28.3255 -0.9759 2.2888 -0.0175111 0.895433 15.7816 22.1583 -0.53 10.8316 7.95139e-016 -1.98785e-016 -0 0.786 0.112 2.5817 5.46658e-016 -3.97569e-016 -0 0.3601 -0.878 4.2331 5.96354e-016 0 -0 1.8127 -1.216 2.2227 3.97569e-016 1.98785e-016 9.54166e-015 0.9571 1.114 1.7695 1.49089e-016 -3.97569e-016 -0 4.1246 0.487 4.1451 6.4605e-016 0 3.18055e-015 3.4052 -1.454 2.7682 5.96354e-016 0 3.18055e-015 1.4531 -1.795 1.2713 8.94531e-016 -1.98785e-016 6.36111e-015 5.6954 0.21 2.1184 6.4605e-016 0 3.18055e-015 3.9766 -1.54 2.3863 5.96354e-016 0 3.18055e-015 1.4042 -1.926 1.125 8.94531e-016 -1.98785e-016 6.36111e-015 2.0956 0.66 -0.3894 1.49089e-016 -3.97569e-016 -0 5.0395 -0.09 2.4971 6.4605e-016 0 3.18055e-015 3.7921 -1.552 1.4806 5.96354e-016 0 3.18055e-015 1.4655 -1.808 0.9609 8.94531e-016 -1.98785e-016 6.36111e-015 4.9141 -1.269 0.3591 6.4605e-016 0 3.18055e-015 3.1477 -1.685 0.8462 5.96354e-016 0 3.18055e-015 0.8055 -1.585 0.7955 8.94531e-016 -1.98785e-016 6.36111e-015 -1.7069 20.075 5.0056 0 0 -0 -13.6458 -0.047 -4.849 -1.4496 0.0636048 -5.0245 -28.3255 -0.9759 2.2888 -1.74811 1.20616 -16.8394 -22.1583 -0.53 10.8316 -1.19271e-015 1.98785e-016 -3.18055e-015 -0.786 0.112 2.5817 -3.97569e-016 1.98785e-016 -3.18055e-015 -0.3601 -0.878 4.2331 -2.98177e-016 1.98785e-016 -3.18055e-015 -1.8127 -1.216 2.2227 -2.98177e-016 3.97569e-016 -0 -0.9571 1.114 1.7695 4.96962e-016 0 -6.36111e-015 -4.1246 0.487 4.1451 -9.93923e-017 3.97569e-016 -0 -3.4052 -1.454 2.7682 -8.94531e-016 5.96354e-016 -0 -1.4531 -1.795 1.2713 -3.97569e-016 3.97569e-016 -0 -5.6954 0.21 2.1184 -9.93923e-017 3.97569e-016 -0 -3.9766 -1.54 2.3863 -8.94531e-016 5.96354e-016 -0 -1.4042 -1.926 1.125 -3.97569e-016 3.97569e-016 -0 -2.0956 0.66 -0.3894 4.96962e-016 0 -6.36111e-015 -5.0395 -0.09 2.4971 -9.93923e-017 3.97569e-016 -0 -3.7921 -1.552 1.4806 -8.94531e-016 5.96354e-016 -0 -1.4655 -1.808 0.9609 -3.97569e-016 3.97569e-016 -0 -4.9141 -1.269 0.3592 -9.93923e-017 3.97569e-016 -0 -3.1477 -1.685 0.8462 -8.94531e-016 5.96354e-016 -0 -0.8055 -1.585 0.7955 -3.97569e-016 3.97569e-016 -0 8.367 -8.2066 0.5982 -4.66115 -1.03232 0.120763 2.1923 -43.463 -0.4932 0.00990601 1.55097 0.177175 0.7333 -45.8593 -2.6451 4.65196 -0.54114 -0.255042 -8.367 -8.2066 0.5982 4.66115 -1.03222 -0.120763 -2.1923 -43.463 -0.4931 -0.00990459 1.5509 -0.177176 -0.7333 -45.8593 -2.6451 -4.65196 -0.541171 0.255041 
1.64663 89.1446 70.7422 -8.00276e-015 -7.99933 180 0 -1.186 -1.5018 -0.184761 4.40243 -0.372964 0 9.964 0.2134 -0.342199 8.80594 -0.734907 0 13.134 -3.2573 -0.342199 8.80595 -0.734908 0 20.686 -1.6905 0.117152 0.173108 -0.000175338 8.88178e-016 7.238 -0.1237 -1.28027e-007 0.117153 5.14829e-007 1.7069 20.075 5.0056 -5.61498 3.28754 -20.0972 13.6458 -0.047 -4.849 -59.5374 -2.3256 -10.0907 28.3255 -0.9759 2.2888 -8.31737 17.1664 -39.229 22.1583 -0.53 10.8316 7.24185 0.821659 0.35612 0.786 0.112 2.5817 -6.40216e-007 1.07852e-006 1.14106e-006 0.3601 -0.878 4.2331 -2.64834e-031 -3.18055e-015 -4.77083e-015 1.8127 -1.216 2.2227 -6.40216e-007 1.07852e-006 1.14106e-006 0.9571 1.114 1.7695 -1.59028e-015 3.18055e-015 -0 4.1246 0.487 4.1451 -6.40216e-007 1.07852e-006 1.14106e-006 3.4052 -1.454 2.7682 -1.59028e-015 3.18055e-015 -4.77083e-015 1.4531 -1.795 1.2713 -6.40216e-007 1.07852e-006 1.14106e-006 5.6954 0.21 2.1184 -6.40216e-007 1.07852e-006 1.14106e-006 3.9766 -1.54 2.3863 -1.59028e-015 3.18055e-015 -4.77083e-015 1.4042 -1.926 1.125 -6.40216e-007 1.07852e-006 1.14106e-006 2.0956 0.66 -0.3894 -1.59028e-015 3.18055e-015 -0 5.0395 -0.09 2.4971 -6.40216e-007 1.07852e-006 1.14106e-006 3.7921 -1.552 1.4806 -1.59028e-015 3.18055e-015 -4.77083e-015 1.4655 -1.808 0.9609 -6.40216e-007 1.07852e-006 1.14106e-006 4.9141 -1.269 0.3591 -6.40216e-007 1.07852e-006 1.14106e-006 3.1477 -1.685 0.8462 -1.59028e-015 3.18055e-015 -4.77083e-015 0.8055 -1.585 0.7955 -6.40216e-007 1.07852e-006 1.14106e-006 -1.7069 20.075 5.0056 7.75769 3.546 22.1292 -13.6458 -0.047 -4.849 59.9583 -2.16089 10.7704 -28.3255 -0.9759 2.2888 7.25208 16.0556 38.6965 -22.1583 -0.53 10.8316 -9.84227 0.8258 -2.218 -0.786 0.112 2.5817 -3.96169e-006 3.54546e-006 -1.81138e-006 -0.3601 -0.878 4.2331 -1.04793e-007 5.56231e-006 3.45748e-006 -1.8127 -1.216 2.2227 -3.00593e-007 -5.70359e-007 5.52699e-007 -0.9571 1.114 1.7695 -2.64834e-031 -9.54166e-015 -1.59028e-015 -4.1246 0.487 4.1451 -3.96169e-006 3.54546e-006 -1.81138e-006 -3.4052 -1.454 2.7682 -1.04793e-007 5.56231e-006 3.45748e-006 -1.4531 -1.795 1.2713 -3.00593e-007 -5.70359e-007 5.52699e-007 -5.6954 0.21 2.1184 -3.96169e-006 3.54546e-006 -1.81138e-006 -3.9766 -1.54 2.3863 -1.04793e-007 5.56231e-006 3.45748e-006 -1.4042 -1.926 1.125 -3.00593e-007 -5.70359e-007 5.52699e-007 -2.0956 0.66 -0.3894 -2.64834e-031 -9.54166e-015 -1.59028e-015 -5.0395 -0.09 2.4971 -3.96169e-006 3.54546e-006 -1.81138e-006 -3.7921 -1.552 1.4806 -1.04793e-007 5.56231e-006 3.45748e-006 -1.4655 -1.808 0.9609 -3.00593e-007 -5.70359e-007 5.52699e-007 -4.9141 -1.269 0.3592 -3.96169e-006 3.54546e-006 -1.81138e-006 -3.1477 -1.685 0.8462 -1.04793e-007 5.56231e-006 3.45748e-006 -0.8055 -1.585 0.7955 -3.00593e-007 -5.70359e-007 5.52699e-007 8.367 -8.2066 0.5982 6.9471 -25.5843 13.7969 2.1923 -43.463 -0.4932 -0.572647 28.7169 0.882198 0.7333 -45.8593 -2.6451 -10.081 -10.5042 4.34727 -8.367 -8.2066 0.5982 -4.46622 -25.634 -13.5342 -2.1923 -43.463 -0.4931 0.511927 28.9451 -0.819844 -0.7333 -45.8593 -2.6451 7.83111 -10.4177 -4.60876 
1.64925 89.2083 70.6645 -7.8445e-015 -6.72832 180 0 -1.186 -1.5018 -0.185509 4.55717 -0.372966 4.44089e-016 9.964 0.2134 -0.342781 9.11544 -0.734577 0 13.134 -3.2573 -0.342781 9.11543 -0.734577 8.88178e-016 20.686 -1.6905 0.233681 0.348398 -0.016257 0 7.238 -0.1237 4.8588e-008 0.234648 -3.34237e-007 1.7069 20.075 5.0056 -5.82179 2.9994 -20.4222 13.6458 -0.047 -4.849 -59.3723 -2.4594 -10.2688 28.3255 -0.9759 2.2888 -8.1351 16.965 -38.4329 22.1583 -0.53 10.8316 6.50309 0.621624 0.507185 0.786 0.112 2.5817 -1.59028e-015 -1.27222e-014 1.59028e-015 0.3601 -0.878 4.2331 3.18055e-015 -1.27222e-014 -1.59028e-015 1.8127 -1.216 2.2227 -6.41078e-007 1.07806e-006 1.14081e-006 0.9571 1.114 1.7695 1.59028e-015 0 1.59028e-015 4.1246 0.487 4.1451 -1.59028e-015 -1.59028e-014 -3.18055e-015 3.4052 -1.454 2.7682 -4.77083e-015 -1.90833e-014 1.59028e-015 1.4531 -1.795 1.2713 -6.41078e-007 1.07806e-006 1.14081e-006 5.6954 0.21 2.1184 -1.59028e-015 -1.59028e-014 -3.18055e-015 3.9766 -1.54 2.3863 -4.77083e-015 -1.90833e-014 1.59028e-015 1.4042 -1.926 1.125 -6.41078e-007 1.07806e-006 1.14081e-006 2.0956 0.66 -0.3894 1.59028e-015 0 1.59028e-015 5.0395 -0.09 2.4971 -1.59028e-015 -1.59028e-014 -3.18055e-015 3.7921 -1.552 1.4806 -4.77083e-015 -1.90833e-014 1.59028e-015 1.4655 -1.808 0.9609 -6.41078e-007 1.07806e-006 1.14081e-006 4.9141 -1.269 0.3591 -1.59028e-015 -1.59028e-014 -3.18055e-015 3.1477 -1.685 0.8462 -4.77083e-015 -1.90833e-014 1.59028e-015 0.8055 -1.585 0.7955 -6.41078e-007 1.07806e-006 1.14081e-006 -1.7069 20.075 5.0056 7.9494 3.25345 22.4433 -13.6458 -0.047 -4.849 59.826 -2.27905 10.9602 -28.3255 -0.9759 2.2888 7.06429 15.8799 37.9417 -22.1583 -0.53 10.8316 -9.14187 0.660306 -2.45209 -0.786 0.112 2.5817 3.01e-007 5.7018e-007 -5.52582e-007 -0.3601 -0.878 4.2331 2.64834e-031 3.18055e-015 -4.77083e-015 -1.8127 -1.216 2.2227 3.01e-007 5.7018e-007 -5.52582e-007 -0.9571 1.114 1.7695 -6.36111e-015 -3.18055e-015 -0 -4.1246 0.487 4.1451 3.01e-007 5.7018e-007 -5.52582e-007 -3.4052 -1.454 2.7682 6.36111e-015 -6.36111e-015 -1.59028e-015 -1.4531 -1.795 1.2713 3.01e-007 5.7018e-007 -5.52582e-007 -5.6954 0.21 2.1184 3.01e-007 5.7018e-007 -5.52582e-007 -3.9766 -1.54 2.3863 6.36111e-015 -6.36111e-015 -1.59028e-015 -1.4042 -1.926 1.125 3.01e-007 5.7018e-007 -5.52582e-007 -2.0956 0.66 -0.3894 -6.36111e-015 -3.18055e-015 -0 -5.0395 -0.09 2.4971 3.01e-007 5.7018e-007 -5.52582e-007 -3.7921 -1.552 1.4806 6.36111e-015 -6.36111e-015 -1.59028e-015 -1.4655 -1.808 0.9609 3.01e-007 5.7018e-007 -5.52582e-007 -4.9141 -1.269 0.3592 3.01e-007 5.7018e-007 -5.52582e-007 -3.1477 -1.685 0.8462 6.36111e-015 -6.36111e-015 -1.59028e-015 -0.8055 -1.585 0.7955 3.01e-007 5.7018e-007 -5.52582e-007 8.367 -8.2066 0.5982 6.77339 -23.9724 13.4192 2.1923 -43.463 -0.4932 -0.633743 28.3402 0.890118 0.7333 -45.8593 -2.6451 -10.0872 -10.5239 4.345 -8.367 -8.2066 0.5982 -4.16954 -24.0393 -12.8996 -2.1923 -43.463 -0.4931 0.561633 28.5719 -0.81683 -0.7333 -45.8593 -2.6451 7.83242 -10.4793 -5.07947 
1.65156 89.2701 70.588 -7.6868e-015 -5.45517 180 0 -1.186 -1.5018 -0.186248 4.71218 -0.372947 0 9.964 0.2134 -0.343347 9.42545 -0.734207 0 13.134 -3.2573 -0.343347 9.42545 -0.734208 0 20.686 -1.6905 0.350294 0.523865 -0.0327188 0 7.238 -0.1237 7.98443e-008 0.352158 -2.00666e-007 1.7069 20.075 5.0056 -6.03026 2.71242 -20.7482 13.6458 -0.047 -4.849 -59.2075 -2.59369 -10.4465 28.3255 -0.9759 2.2888 -7.94994 16.766 -37.6363 22.1583 -0.53 10.8316 5.76442 0.419482 0.655825 0.786 0.112 2.5817 -4.77083e-015 0 1.59028e-015 0.3601 -0.878 4.2331 -4.77083e-015 -1.27222e-014 1.59028e-015 1.8127 -1.216 2.2227 6.4183e-007 -1.07768e-006 -1.14057e-006 0.9571 1.114 1.7695 -3.18055e-015 1.27222e-014 1.59028e-015 4.1246 0.487 4.1451 -6.36111e-015 -9.54166e-015 6.36111e-015 3.4052 -1.454 2.7682 -1.59028e-015 -1.59028e-014 -4.77083e-015 1.4531 -1.795 1.2713 6.4183e-007 -1.07768e-006 -1.14057e-006 5.6954 0.21 2.1184 -6.36111e-015 -9.54166e-015 6.36111e-015 3.9766 -1.54 2.3863 -1.59028e-015 -1.59028e-014 -4.77083e-015 1.4042 -1.926 1.125 6.4183e-007 -1.07768e-006 -1.14057e-006 2.0956 0.66 -0.3894 -3.18055e-015 1.27222e-014 1.59028e-015 5.0395 -0.09 2.4971 -6.36111e-015 -9.54166e-015 6.36111e-015 3.7921 -1.552 1.4806 -1.59028e-015 -1.59028e-014 -4.77083e-015 1.4655 -1.808 0.9609 6.4183e-007 -1.07768e-006 -1.14057e-006 4.9141 -1.269 0.3591 -6.36111e-015 -9.54166e-015 6.36111e-015 3.1477 -1.685 0.8462 -1.59028e-015 -1.59028e-014 -4.77083e-015 0.8055 -1.585 0.7955 6.4183e-007 -1.07768e-006 -1.14057e-006 -1.7069 20.075 5.0056 8.14271 2.96194 22.7583 -13.6458 -0.047 -4.849 59.6941 -2.39767 11.1498 -28.3255 -0.9759 2.2888 6.87409 15.7065 37.1864 -22.1583 -0.53 10.8316 -8.44169 0.491834 -2.68431 -0.786 0.112 2.5817 -9.04066e-007 -1.71009e-006 1.65741e-006 -0.3601 -0.878 4.2331 -3.01355e-007 -5.70031e-007 5.52469e-007 -1.8127 -1.216 2.2227 -1.59028e-015 1.90833e-014 -4.77083e-015 -0.9571 1.114 1.7695 -3.18055e-015 -3.18055e-015 3.18055e-015 -4.1246 0.487 4.1451 -9.04066e-007 -1.71009e-006 1.65741e-006 -3.4052 -1.454 2.7682 -3.01355e-007 -5.70031e-007 5.52469e-007 -1.4531 -1.795 1.2713 1.59028e-015 2.22639e-014 -3.18055e-015 -5.6954 0.21 2.1184 -9.04066e-007 -1.71009e-006 1.65741e-006 -3.9766 -1.54 2.3863 -3.01355e-007 -5.70031e-007 5.52469e-007 -1.4042 -1.926 1.125 1.59028e-015 2.22639e-014 -3.18055e-015 -2.0956 0.66 -0.3894 -3.18055e-015 -3.18055e-015 3.18055e-015 -5.0395 -0.09 2.4971 -9.04066e-007 -1.71009e-006 1.65741e-006 -3.7921 -1.552 1.4806 -3.01355e-007 -5.70031e-007 5.52469e-007 -1.4655 -1.808 0.9609 1.59028e-015 2.22639e-014 -3.18055e-015 -4.9141 -1.269 0.3592 -9.04066e-007 -1.71009e-006 1.65741e-006 -3.1477 -1.685 0.8462 -3.01355e-007 -5.70031e-007 5.52469e-007 -0.8055 -1.585 0.7955 1.59028e-015 2.22639e-014 -3.18055e-015 8.367 -8.2066 0.5982 6.61163 -22.3543 13.0498 2.1923 -43.463 -0.4932 -0.694247 27.963 0.897602 0.7333 -45.8593 -2.6451 -10.0931 -10.5434 4.34279 -8.367 -8.2066 0.5982 -3.89379 -22.4335 -12.2791 -2.1923 -43.463 -0.4931 0.611741 28.1958 -0.813306 -0.7333 -45.8593 -2.6451 7.83294 -10.5408 -5.55044 
